<svg width="132" height="26" viewBox="0 0 132 26" fill="none" xmlns="http://www.w3.org/2000/svg">
    <path d="M21.7216 9.72309H16.5593C16.465 9.04539 16.2725 8.44342 15.9818 7.9172C15.6911 7.38301 15.3178 6.92855 14.8621 6.55382C14.4064 6.17909 13.88 5.89206 13.2828 5.69273C12.6935 5.49341 12.0531 5.39375 11.3617 5.39375C10.1124 5.39375 9.02413 5.70868 8.09697 6.33855C7.1698 6.96044 6.45086 7.86937 5.94013 9.06532C5.42941 10.2533 5.17404 11.6964 5.17404 13.3947C5.17404 15.1408 5.42941 16.6078 5.94013 17.7958C6.45872 18.9837 7.18159 19.8807 8.10875 20.4867C9.03592 21.0926 10.1084 21.3956 11.3263 21.3956C12.0099 21.3956 12.6424 21.3039 13.2239 21.1205C13.8132 20.9371 14.3357 20.67 14.7914 20.3192C15.2471 19.9604 15.6243 19.5259 15.9229 19.0156C16.2293 18.5054 16.4414 17.9233 16.5593 17.2695L21.7216 17.2935C21.588 18.4177 21.254 19.502 20.7197 20.5465C20.1933 21.5829 19.4822 22.5118 18.5865 23.333C17.6986 24.1463 16.6379 24.7921 15.4043 25.2705C14.1785 25.7409 12.7917 25.9761 11.2438 25.9761C9.09092 25.9761 7.16587 25.4818 5.46869 24.4931C3.77937 23.5044 2.44363 22.0733 1.46146 20.1996C0.487154 18.326 0 16.0577 0 13.3947C0 10.7237 0.495011 8.4514 1.48503 6.57774C2.47506 4.70408 3.81866 3.27691 5.51584 2.29623C7.21302 1.30758 9.12235 0.813248 11.2438 0.813248C12.6424 0.813248 13.9389 1.01257 15.1332 1.41122C16.3354 1.80988 17.4 2.3919 18.3272 3.15731C19.2544 3.91475 20.0087 4.84361 20.5901 5.94388C21.1794 7.04416 21.5566 8.30389 21.7216 9.72309Z" fill="#262D29"/>
    <path d="M25.2868 25.6412V7.27139H30.1544V10.4765H30.343C30.673 9.3364 31.2269 8.47532 32.0048 7.89329C32.7827 7.30328 33.6784 7.00828 34.692 7.00828C34.9435 7.00828 35.2145 7.02423 35.5053 7.05612C35.796 7.08801 36.0513 7.13186 36.2713 7.18767V11.7084C36.0356 11.6366 35.7095 11.5728 35.2931 11.517C34.8767 11.4612 34.4956 11.4333 34.1499 11.4333C33.4113 11.4333 32.7513 11.5968 32.1698 11.9236C31.5962 12.2426 31.1405 12.6891 30.8027 13.2631C30.4726 13.8372 30.3076 14.4989 30.3076 15.2484V25.6412H25.2868Z" fill="#262D29"/>
    <path d="M43.5109 25.988C42.3559 25.988 41.3265 25.7847 40.423 25.3781C39.5194 24.9635 38.8043 24.3536 38.2779 23.5483C37.7593 22.7351 37.5 21.7225 37.5 20.5106C37.5 19.49 37.6847 18.6329 38.054 17.9393C38.4233 17.2456 38.9261 16.6875 39.5626 16.2649C40.199 15.8424 40.9219 15.5235 41.7312 15.3082C42.5484 15.0929 43.4048 14.9414 44.3005 14.8537C45.3534 14.7421 46.202 14.6385 46.8463 14.5428C47.4906 14.4391 47.9581 14.2876 48.2488 14.0883C48.5396 13.889 48.6849 13.594 48.6849 13.2033V13.1316C48.6849 12.3741 48.4492 11.7881 47.9778 11.3735C47.5142 10.9589 46.8542 10.7516 45.9977 10.7516C45.0941 10.7516 44.3752 10.9549 43.8409 11.3615C43.3066 11.7602 42.953 12.2625 42.7802 12.8684L38.1365 12.4857C38.3722 11.3695 38.8358 10.4048 39.5272 9.59154C40.2187 8.77032 41.1105 8.14045 42.2026 7.70193C43.3027 7.25544 44.5756 7.0322 46.0213 7.0322C47.027 7.0322 47.9896 7.15179 48.9089 7.39098C49.836 7.63018 50.6571 8.00092 51.3721 8.50322C52.095 9.00552 52.6647 9.65133 53.0811 10.4407C53.4975 11.222 53.7057 12.1588 53.7057 13.2512V25.6412H48.9442V23.0938H48.8028C48.5121 23.6679 48.1231 24.1742 47.636 24.6127C47.1488 25.0432 46.5634 25.3821 45.8799 25.6293C45.1963 25.8684 44.4066 25.988 43.5109 25.988ZM44.9488 22.4719C45.6874 22.4719 46.3395 22.3244 46.9052 22.0294C47.471 21.7265 47.9149 21.3198 48.2371 20.8096C48.5592 20.2993 48.7203 19.7213 48.7203 19.0754V17.126C48.5631 17.2297 48.3471 17.3254 48.0721 17.4131C47.8049 17.4928 47.5024 17.5685 47.1645 17.6403C46.8267 17.7041 46.4888 17.7639 46.1509 17.8197C45.8131 17.8675 45.5066 17.9114 45.2316 17.9512C44.6423 18.0389 44.1277 18.1785 43.6877 18.3698C43.2477 18.5612 42.9059 18.8203 42.6623 19.1472C42.4187 19.4661 42.2969 19.8648 42.2969 20.3431C42.2969 21.0368 42.5444 21.567 43.0394 21.9338C43.5423 22.2925 44.1788 22.4719 44.9488 22.4719Z" fill="#262D29"/>
    <path d="M67.3362 7.27139V11.0984H56.1631V7.27139H67.3362ZM58.7207 25.6412V5.94388C58.7207 4.61239 58.976 3.50813 59.4868 2.63109C60.0054 1.75406 60.7125 1.09629 61.6082 0.657774C62.504 0.219258 63.5215 0 64.6608 0C65.4308 0 66.1341 0.0597981 66.7705 0.179394C67.4148 0.298989 67.8941 0.406625 68.2084 0.502301L67.3127 4.32935C67.1162 4.26556 66.8727 4.20577 66.5819 4.14995C66.2991 4.09414 66.0083 4.06624 65.7098 4.06624C64.9712 4.06624 64.4565 4.24164 64.1658 4.59246C63.8751 4.9353 63.7297 5.41766 63.7297 6.03956V25.6412H58.7207Z" fill="#262D29"/>
    <path d="M80.0327 7.27139V11.0984H69.1306V7.27139H80.0327ZM71.6057 2.87029H76.6265V19.9963C76.6265 20.4667 76.6972 20.8335 76.8387 21.0966C76.9801 21.3517 77.1765 21.5311 77.428 21.6348C77.6873 21.7384 77.9858 21.7902 78.3237 21.7902C78.5594 21.7902 78.7952 21.7703 79.0309 21.7304C79.2666 21.6826 79.4473 21.6467 79.573 21.6228L80.3627 25.414C80.1113 25.4937 79.7577 25.5854 79.3019 25.6891C78.8462 25.8007 78.2923 25.8684 77.6401 25.8924C76.4301 25.9402 75.3694 25.7768 74.4579 25.402C73.5543 25.0273 72.8511 24.4453 72.3482 23.6559C71.8454 22.8666 71.5978 21.87 71.6057 20.6661V2.87029Z" fill="#262D29"/>
    <path d="M91.359 26C89.4968 26 87.8939 25.6173 86.5503 24.8519C85.2146 24.0785 84.1853 22.9862 83.4624 21.575C82.7395 20.1558 82.3781 18.4775 82.3781 16.54C82.3781 14.6504 82.7395 12.992 83.4624 11.5649C84.1853 10.1377 85.2028 9.02545 86.515 8.22815C87.835 7.43085 89.3829 7.0322 91.1586 7.0322C92.353 7.0322 93.4648 7.22754 94.4941 7.61822C95.5312 8.00092 96.4348 8.57896 97.2048 9.35235C97.9827 10.1257 98.5877 11.0984 99.0199 12.2705C99.452 13.4345 99.6681 14.7979 99.6681 16.3606V17.7599H84.3817V14.6026H94.9419C94.9419 13.8691 94.7848 13.2193 94.4705 12.6532C94.1562 12.0871 93.7201 11.6446 93.1623 11.3257C92.6123 10.9988 91.9719 10.8353 91.2411 10.8353C90.479 10.8353 89.8033 11.0147 89.214 11.3735C88.6325 11.7243 88.1768 12.1987 87.8468 12.7967C87.5168 13.3867 87.3478 14.0445 87.34 14.77V17.7718C87.34 18.6808 87.505 19.4661 87.835 20.1279C88.1729 20.7896 88.6482 21.2999 89.2611 21.6587C89.874 22.0175 90.6008 22.1969 91.4415 22.1969C91.9994 22.1969 92.5101 22.1171 92.9737 21.9577C93.4373 21.7982 93.8341 21.559 94.1641 21.2401C94.4941 20.9212 94.7455 20.5305 94.9184 20.0681L99.562 20.379C99.3263 21.5112 98.8431 22.4998 98.1124 23.345C97.3895 24.1822 96.4545 24.8359 95.3073 25.3063C94.168 25.7688 92.8519 26 91.359 26Z" fill="#262D29"/>
    <path d="M102.945 25.6412V7.27139H107.812V10.4765H108.001C108.331 9.3364 108.885 8.47532 109.663 7.89329C110.44 7.30328 111.336 7.00828 112.35 7.00828C112.601 7.00828 112.872 7.02423 113.163 7.05612C113.454 7.08801 113.709 7.13186 113.929 7.18767V11.7084C113.693 11.6366 113.367 11.5728 112.951 11.517C112.534 11.4612 112.153 11.4333 111.808 11.4333C111.069 11.4333 110.409 11.5968 109.828 11.9236C109.254 12.2426 108.798 12.6891 108.46 13.2631C108.13 13.8372 107.965 14.4989 107.965 15.2484V25.6412H102.945Z" fill="#262D29"/>
    <path d="M131.587 12.5097L126.991 12.7967C126.912 12.398 126.743 12.0393 126.484 11.7203C126.225 11.3934 125.883 11.1343 125.459 10.943C125.042 10.7436 124.543 10.644 123.962 10.644C123.184 10.644 122.528 10.8114 121.994 11.1463C121.459 11.4732 121.192 11.9117 121.192 12.4618C121.192 12.9003 121.365 13.2711 121.711 13.5741C122.057 13.877 122.65 14.1202 123.491 14.3036L126.767 14.9733C128.527 15.3401 129.839 15.9301 130.704 16.7433C131.568 17.5566 132 18.625 132 19.9485C132 21.1524 131.65 22.2088 130.951 23.1178C130.26 24.0267 129.309 24.7363 128.099 25.2465C126.897 25.7488 125.51 26 123.938 26C121.542 26 119.633 25.4937 118.21 24.4811C116.796 23.4606 115.967 22.0733 115.724 20.3192L120.662 20.0561C120.811 20.7976 121.173 21.3637 121.746 21.7544C122.32 22.1371 123.054 22.3284 123.95 22.3284C124.83 22.3284 125.537 22.157 126.072 21.8142C126.614 21.4634 126.889 21.0129 126.897 20.4627C126.889 20.0003 126.696 19.6216 126.319 19.3266C125.942 19.0236 125.361 18.7924 124.575 18.6329L121.44 17.9991C119.672 17.6403 118.356 17.0184 117.491 16.1334C116.635 15.2484 116.207 14.1202 116.207 12.7489C116.207 11.5688 116.521 10.5523 117.15 9.69917C117.786 8.84606 118.678 8.18829 119.825 7.72585C120.98 7.26342 122.332 7.0322 123.879 7.0322C126.166 7.0322 127.965 7.52254 129.277 8.50322C130.597 9.4839 131.367 10.8194 131.587 12.5097Z" fill="#262D29"/>
</svg>

