<svg width="16" height="16" viewBox="0 0 16 16" fill="none" xmlns="http://www.w3.org/2000/svg">
<g clip-path="url(#clip0_4075_16580)">
<path d="M14.6654 7.39016V8.00349C14.6645 9.44111 14.199 10.8399 13.3383 11.9914C12.4775 13.1428 11.2676 13.9851 9.88894 14.3928C8.51032 14.8004 7.03687 14.7514 5.68835 14.2532C4.33982 13.755 3.18847 12.8342 2.406 11.6282C1.62354 10.4222 1.25189 8.99553 1.34648 7.56103C1.44107 6.12653 1.99684 4.76104 2.93088 3.66821C3.86493 2.57537 5.12722 1.81375 6.52949 1.49692C7.93176 1.1801 9.39888 1.32505 10.712 1.91016M14.6654 2.66634L7.9987 9.33967L5.9987 7.33967" stroke="#1DBE60" stroke-width="1.5" stroke-linecap="round" stroke-linejoin="round"/>
</g>
<defs>
<clipPath id="clip0_4075_16580">
<rect width="16" height="16" fill="white"/>
</clipPath>
</defs>
</svg>
