<svg width="16" height="16" viewBox="0 0 16 16" fill="none" xmlns="http://www.w3.org/2000/svg">
<path d="M10.668 2.66732C11.2879 2.66732 11.5979 2.66732 11.8523 2.73547C12.5425 2.9204 13.0816 3.4595 13.2665 4.14968C13.3346 4.40401 13.3346 4.714 13.3346 5.33398V11.4673C13.3346 12.5874 13.3346 13.1475 13.1166 13.5753C12.9249 13.9516 12.6189 14.2576 12.2426 14.4493C11.8148 14.6673 11.2547 14.6673 10.1346 14.6673H5.86797C4.74786 14.6673 4.18781 14.6673 3.75999 14.4493C3.38366 14.2576 3.0777 13.9516 2.88596 13.5753C2.66797 13.1475 2.66797 12.5874 2.66797 11.4673V5.33398C2.66797 4.714 2.66797 4.40401 2.73612 4.14968C2.92105 3.4595 3.46015 2.9204 4.15033 2.73547C4.40466 2.66732 4.71465 2.66732 5.33464 2.66732M8.0013 11.334V7.33398M6.0013 9.33398H10.0013M6.4013 4.00065H9.6013C9.97467 4.00065 10.1614 4.00065 10.304 3.92799C10.4294 3.86407 10.5314 3.76209 10.5953 3.63664C10.668 3.49404 10.668 3.30735 10.668 2.93398V2.40065C10.668 2.02728 10.668 1.8406 10.5953 1.69799C10.5314 1.57255 10.4294 1.47056 10.304 1.40665C10.1614 1.33398 9.97467 1.33398 9.6013 1.33398H6.4013C6.02793 1.33398 5.84125 1.33398 5.69864 1.40665C5.5732 1.47056 5.47121 1.57255 5.4073 1.69799C5.33464 1.8406 5.33464 2.02728 5.33464 2.40065V2.93398C5.33464 3.30735 5.33464 3.49404 5.4073 3.63664C5.47121 3.76209 5.5732 3.86407 5.69864 3.92799C5.84125 4.00065 6.02793 4.00065 6.4013 4.00065Z" stroke="#262D29" stroke-opacity="0.6" stroke-width="1.5" stroke-linecap="round" stroke-linejoin="round"/>
</svg>
