<svg width="16" height="16" viewBox="0 0 16 16" fill="none" xmlns="http://www.w3.org/2000/svg">
<g clip-path="url(#clip0_4084_5088)">
<path d="M5.33203 10.6663V12.533C5.33203 13.2797 5.33203 13.6531 5.47736 13.9383C5.60519 14.1892 5.80916 14.3932 6.06004 14.521C6.34526 14.6663 6.71863 14.6663 7.46536 14.6663H12.532C13.2788 14.6663 13.6521 14.6663 13.9374 14.521C14.1882 14.3932 14.3922 14.1892 14.52 13.9383C14.6654 13.6531 14.6654 13.2797 14.6654 12.533V7.46634C14.6654 6.7196 14.6654 6.34624 14.52 6.06102C14.3922 5.81014 14.1882 5.60616 13.9374 5.47833C13.6521 5.33301 13.2788 5.33301 12.532 5.33301H10.6654M3.46536 10.6663H8.53203C9.27877 10.6663 9.65214 10.6663 9.93735 10.521C10.1882 10.3932 10.3922 10.1892 10.52 9.93833C10.6654 9.65311 10.6654 9.27974 10.6654 8.53301V3.46634C10.6654 2.7196 10.6654 2.34624 10.52 2.06102C10.3922 1.81014 10.1882 1.60616 9.93735 1.47833C9.65214 1.33301 9.27877 1.33301 8.53203 1.33301H3.46536C2.71863 1.33301 2.34526 1.33301 2.06004 1.47833C1.80916 1.60616 1.60519 1.81014 1.47736 2.06102C1.33203 2.34624 1.33203 2.7196 1.33203 3.46634V8.53301C1.33203 9.27974 1.33203 9.65311 1.47736 9.93833C1.60519 10.1892 1.80916 10.3932 2.06004 10.521C2.34526 10.6663 2.71863 10.6663 3.46536 10.6663Z" stroke="#262D29" stroke-opacity="0.6" stroke-width="1.5" stroke-linecap="round" stroke-linejoin="round"/>
</g>
<defs>
<clipPath id="clip0_4084_5088">
<rect width="16" height="16" fill="white"/>
</clipPath>
</defs>
</svg>
