<svg width="20" height="20" viewBox="0 0 20 20" fill="none" xmlns="http://www.w3.org/2000/svg">
<path d="M7.49737 9.35183L10.6455 12.5M6.6431 17.479C5.50407 18.6181 3.33073 18.3333 1.66406 18.3333C2.51831 16.6666 1.37928 14.4933 2.51831 13.3543C3.65734 12.2152 5.50407 12.2152 6.6431 13.3543C7.78213 14.4933 7.78213 16.34 6.6431 17.479ZM9.93206 13.2705L17.5463 5.0471C18.217 4.32279 18.1953 3.19797 17.4974 2.49998C16.7994 1.80199 15.6745 1.78036 14.9502 2.45101L6.72684 10.0653C6.3019 10.4587 6.08942 10.6555 5.9655 10.8653C5.66835 11.3684 5.65639 11.9904 5.93399 12.5046C6.04975 12.719 6.25451 12.9238 6.66402 13.3333C7.07353 13.7428 7.27828 13.9476 7.49271 14.0633C8.0069 14.3409 8.6289 14.329 9.13204 14.0318C9.34186 13.9079 9.53859 13.6954 9.93206 13.2705Z" stroke="#262D29" stroke-opacity="0.6" stroke-width="1.5" stroke-linecap="round" stroke-linejoin="round"/>
</svg>
