<svg width="21" height="20" viewBox="0 0 21 20" fill="none" xmlns="http://www.w3.org/2000/svg">
<path d="M9.41422 7.44815V8.59565H8.57422V9.99815H9.41422V14.1673H11.1409V9.99815H12.2992C12.2992 9.99815 12.4084 9.32565 12.4609 8.58982H11.1476V7.63148C11.1476 7.48732 11.3359 7.29482 11.5226 7.29482H12.4626V5.83398H11.1834C9.37172 5.83398 9.41422 7.23815 9.41422 7.44815Z" fill="white"/>
<path d="M5.5013 3.33366C5.05927 3.33366 4.63535 3.50925 4.32279 3.82181C4.01023 4.13437 3.83464 4.5583 3.83464 5.00033V15.0003C3.83464 15.4424 4.01023 15.8663 4.32279 16.1788C4.63535 16.4914 5.05927 16.667 5.5013 16.667H15.5013C15.9433 16.667 16.3673 16.4914 16.6798 16.1788C16.9924 15.8663 17.168 15.4424 17.168 15.0003V5.00033C17.168 4.5583 16.9924 4.13437 16.6798 3.82181C16.3673 3.50925 15.9433 3.33366 15.5013 3.33366H5.5013ZM5.5013 1.66699H15.5013C16.3854 1.66699 17.2332 2.01818 17.8583 2.6433C18.4834 3.26842 18.8346 4.11627 18.8346 5.00033V15.0003C18.8346 15.8844 18.4834 16.7322 17.8583 17.3573C17.2332 17.9825 16.3854 18.3337 15.5013 18.3337H5.5013C4.61725 18.3337 3.7694 17.9825 3.14428 17.3573C2.51916 16.7322 2.16797 15.8844 2.16797 15.0003V5.00033C2.16797 4.11627 2.51916 3.26842 3.14428 2.6433C3.7694 2.01818 4.61725 1.66699 5.5013 1.66699Z" fill="white"/>
</svg>
