<svg width="20" height="20" viewBox="0 0 20 20" fill="none" xmlns="http://www.w3.org/2000/svg">
<g clip-path="url(#clip0_4062_4843)">
<path d="M20 10.0026C20 9.2008 20.1474 8.94271 20 8.33594H10V11.6693H15.8333C15.7199 12.5686 14.6949 14.0925 13.3333 15.0026L16.6667 17.5026C18.5955 15.8014 20 12.9715 20 10.0026Z" fill="#4285F4"/>
<path d="M9.9987 19.9974C12.7469 19.9974 14.9802 19.0901 16.6654 17.4974L13.332 14.9974C12.4725 15.6091 11.5141 15.8307 9.9987 15.8307C7.30705 15.8307 4.97973 14.1687 4.16536 11.6641L0.832031 14.1641C2.50582 17.5574 6.01771 19.9974 9.9987 19.9974Z" fill="#34A853"/>
<path d="M4.16667 12.5026C3.96263 11.8707 4.16667 11.5355 4.16667 10.8359C4.16667 10.1363 3.97337 8.96782 4.16667 8.33594L0.833333 5.83594C0.178287 7.21257 0 9.1998 0 10.8359C0 12.4721 0.178287 13.626 0.833333 15.0026L4.16667 12.5026Z" fill="#FBBC05"/>
<path d="M9.9987 4.16667C11.9018 4.16667 13.4334 5.12922 14.1654 5.83333L16.6654 2.5C14.9087 0.826411 12.7351 0 9.9987 0C6.0347 0 2.49868 2.44 0.832031 5.83333L4.16536 8.33333C4.98751 5.82872 7.31853 4.16667 9.9987 4.16667Z" fill="#EB4335"/>
</g>
<defs>
<clipPath id="clip0_4062_4843">
<rect width="20" height="20" fill="white"/>
</clipPath>
</defs>
</svg>
