<svg width="16" height="16" viewBox="0 0 16 16" fill="none" xmlns="http://www.w3.org/2000/svg">
    <path d="M7.52047 2.30205C7.67412 1.99076 7.75095 1.83511 7.85525 1.78538C7.946 1.74211 8.05142 1.74211 8.14217 1.78538C8.24647 1.83511 8.3233 1.99076 8.47695 2.30205L9.93474 5.25536C9.9801 5.34726 10.0028 5.39321 10.0359 5.42889C10.0653 5.46048 10.1005 5.48607 10.1396 5.50425C10.1837 5.52479 10.2344 5.5322 10.3358 5.54702L13.5967 6.02364C13.9401 6.07383 14.1118 6.09893 14.1912 6.1828C14.2604 6.25576 14.2929 6.35603 14.2797 6.45569C14.2646 6.57022 14.1403 6.69129 13.8917 6.93342L11.533 9.23078C11.4595 9.3024 11.4227 9.33821 11.399 9.38081C11.378 9.41854 11.3645 9.45998 11.3593 9.50284C11.3534 9.55125 11.3621 9.60183 11.3795 9.703L11.936 12.9479C11.9947 13.2902 12.0241 13.4613 11.9689 13.5628C11.9209 13.6512 11.8356 13.7132 11.7367 13.7315C11.6231 13.7526 11.4694 13.6717 11.1621 13.5101L8.24695 11.9771C8.15612 11.9293 8.11071 11.9054 8.06286 11.896C8.0205 11.8877 7.97692 11.8877 7.93456 11.896C7.88671 11.9054 7.8413 11.9293 7.75047 11.9771L4.83531 13.5101C4.52798 13.6717 4.37431 13.7526 4.26068 13.7315C4.16182 13.7132 4.07651 13.6512 4.02852 13.5628C3.97336 13.4613 4.00271 13.2902 4.06141 12.9479L4.61796 9.703C4.63531 9.60183 4.64398 9.55125 4.63811 9.50284C4.63291 9.45998 4.61944 9.41854 4.59844 9.38081C4.57471 9.33821 4.53795 9.3024 4.46442 9.23078L2.10574 6.93342C1.85714 6.69129 1.73284 6.57022 1.71772 6.45569C1.70456 6.35603 1.73707 6.25576 1.8062 6.1828C1.88565 6.09893 2.05735 6.07383 2.40073 6.02364L5.66157 5.54702C5.76298 5.5322 5.81368 5.52479 5.85784 5.50425C5.89694 5.48607 5.93214 5.46048 5.96149 5.42889C5.99464 5.39321 6.01732 5.34726 6.06268 5.25536L7.52047 2.30205Z" fill="#DB7608" stroke="#DB7608" stroke-width="1.5" stroke-linecap="round" stroke-linejoin="round"/>
</svg>
